<?xml version="1.0" encoding="UTF-8" standalone="no"?>
<!-- Created with Inkscape (http://www.inkscape.org/) -->

<svg
   xmlns:dc="http://purl.org/dc/elements/1.1/"
   xmlns:cc="http://creativecommons.org/ns#"
   xmlns:rdf="http://www.w3.org/1999/02/22-rdf-syntax-ns#"
   xmlns:svg="http://www.w3.org/2000/svg"
   xmlns="http://www.w3.org/2000/svg"
   xmlns:sodipodi="http://sodipodi.sourceforge.net/DTD/sodipodi-0.dtd"
   xmlns:inkscape="http://www.inkscape.org/namespaces/inkscape"
   width="151mm"
   height="44mm"
   viewBox="0 0 535.03937 155.9055"
   id="svg2"
   version="1.1"
   inkscape:version="0.91 r13725"
   sodipodi:docname="title.svg"
   inkscape:export-filename="/DATA/Projects/Website/johanadmin/johan.vandegriff.net/asocialsafety.net/title.png"
   inkscape:export-xdpi="90"
   inkscape:export-ydpi="90">
  <defs
     id="defs4" />
  <sodipodi:namedview
     id="base"
     pagecolor="#ffffff"
     bordercolor="#666666"
     borderopacity="1.0"
     inkscape:pageopacity="0.0"
     inkscape:pageshadow="2"
     inkscape:zoom="2.2092841"
     inkscape:cx="237.09431"
     inkscape:cy="50.127099"
     inkscape:document-units="px"
     inkscape:current-layer="layer1"
     showgrid="false"
     inkscape:window-width="1920"
     inkscape:window-height="1013"
     inkscape:window-x="0"
     inkscape:window-y="26"
     inkscape:window-maximized="1" />
  <metadata
     id="metadata7">
    <rdf:RDF>
      <cc:Work
         rdf:about="">
        <dc:format>image/svg+xml</dc:format>
        <dc:type
           rdf:resource="http://purl.org/dc/dcmitype/StillImage" />
        <dc:title />
      </cc:Work>
    </rdf:RDF>
  </metadata>
  <g
     inkscape:label="Layer 1"
     inkscape:groupmode="layer"
     id="layer1"
     transform="translate(0,-896.45629)">
    <g
       id="g4160"
       transform="translate(18.487094,-2.0299398)">
      <g
         id="text3336"
         style="font-style:normal;font-weight:normal;font-size:63.73547363px;line-height:125%;font-family:sans-serif;letter-spacing:0px;word-spacing:0px;fill:#000000;fill-opacity:1;stroke:none;stroke-width:1px;stroke-linecap:butt;stroke-linejoin:miter;stroke-opacity:1">
        <path
           inkscape:connector-curvature="0"
           id="path4146"
           style="font-style:normal;font-variant:normal;font-weight:normal;font-stretch:condensed;font-family:Impact;-inkscape-font-specification:'Impact Condensed'"
           d="m 33.458561,906.39423 7.500122,50.38464 -13.413081,0 -0.653537,-9.05616 -4.699247,0 -0.778021,9.05616 -13.5686845,0 6.6598595,-50.38464 18.952589,0 z m -6.939946,32.3968 q -0.995867,-8.55823 -1.991734,-21.13105 -1.991734,14.44007 -2.489667,21.13105 l 4.481401,0 z" />
        <path
           inkscape:connector-curvature="0"
           id="path4148"
           style="font-style:normal;font-variant:normal;font-weight:normal;font-stretch:condensed;font-family:Impact;-inkscape-font-specification:'Impact Condensed'"
           d="m 82.162667,921.64344 -12.168247,0 0,-3.7345 q 0,-2.61415 -0.466812,-3.32992 -0.466813,-0.71578 -1.556042,-0.71578 -1.182592,0 -1.805009,0.96474 -0.591296,0.96475 -0.591296,2.92536 0,2.52079 0.684659,3.79674 0.653537,1.27596 3.703379,3.08097 8.744955,5.19718 11.016776,8.5271 2.271822,3.32993 2.271822,10.73669 0,5.38391 -1.275955,7.93582 -1.244833,2.55191 -4.85485,4.29467 -3.610017,1.71165 -8.402626,1.71165 -5.259422,0 -8.993922,-1.99174 -3.70338,-1.99173 -4.854851,-5.07269 -1.151471,-3.08096 -1.151471,-8.74496 l 0,-3.29881 12.168248,0 0,6.13081 q 0,2.832 0.497933,3.64114 0.529054,0.80914 1.836129,0.80914 1.307076,0 1.929492,-1.02699 0.653538,-1.02699 0.653538,-3.04984 0,-4.45028 -1.213713,-5.8196 -1.244833,-1.36931 -6.130805,-4.57476 -4.885971,-3.23657 -6.473134,-4.69925 -1.587162,-1.46268 -2.645271,-4.04571 -1.026987,-2.58302 -1.026987,-6.59761 0,-5.78848 1.462679,-8.46487 1.4938,-2.67639 4.792609,-4.17019 3.298808,-1.52492 7.966934,-1.52492 5.103817,0 8.682713,1.6494 3.610018,1.64941 4.761488,4.17019 1.182592,2.48967 1.182592,8.49599 l 0,1.99173 z" />
        <path
           inkscape:connector-curvature="0"
           id="path4150"
           style="font-style:normal;font-variant:normal;font-weight:normal;font-stretch:condensed;font-family:Impact;-inkscape-font-specification:'Impact Condensed'"
           d="m 115.46197,929.98383 0,10.11427 q 0,5.57063 -0.56018,8.18478 -0.56017,2.58303 -2.3963,4.85485 -1.83613,2.2407 -4.73037,3.32993 -2.86312,1.05811 -6.59762,1.05811 -4.17019,0 -7.064428,-0.9025 -2.894238,-0.93363 -4.512521,-2.76976 -1.587163,-1.86725 -2.271821,-4.4814 -0.684659,-2.64527 -0.684659,-7.90469 l 0,-10.58109 q 0,-5.75735 1.244834,-8.99392 1.244833,-3.23657 4.4814,-5.19718 3.236567,-1.96061 8.278145,-1.96061 4.23243,0 7.25115,1.27595 3.04984,1.24484 4.69925,3.26769 1.6494,2.02286 2.2407,4.17019 0.62242,2.14734 0.62242,6.53538 z m -12.57282,-3.11208 q 0,-3.17433 -0.34233,-3.98347 -0.34233,-0.84026 -1.46268,-0.84026 -1.120351,0 -1.493801,0.84026 -0.37345,0.80914 -0.37345,3.98347 l 0,18.64138 q 0,2.92536 0.37345,3.82786 0.37345,0.87138 1.462681,0.87138 1.12035,0 1.46268,-0.80914 0.37345,-0.80914 0.37345,-3.48553 l 0,-19.04595 z" />
        <path
           inkscape:connector-curvature="0"
           id="path4152"
           style="font-style:normal;font-variant:normal;font-weight:normal;font-stretch:condensed;font-family:Impact;-inkscape-font-specification:'Impact Condensed'"
           d="m 147.42306,931.07306 -11.85704,0 0,-4.76149 q 0,-2.48967 -0.40457,-3.36105 -0.40457,-0.9025 -1.4938,-0.9025 -1.08923,0 -1.46268,0.77802 -0.37345,0.77802 -0.37345,3.48553 l 0,19.48164 q 0,2.20958 0.56018,3.32993 0.56017,1.08923 1.6494,1.08923 1.27595,0 1.71165,-1.15147 0.46681,-1.15147 0.46681,-4.35692 l 0,-4.91709 11.2035,0 q -0.0311,4.94822 -0.37345,7.43788 -0.31121,2.45855 -2.0851,5.0727 -1.74276,2.58303 -4.57476,3.92122 -2.832,1.30708 -7.00219,1.30708 -5.32166,0 -8.43374,-1.80501 -3.11209,-1.83613 -4.41916,-5.10382 -1.27596,-3.2988 -1.27596,-9.33625 l 0,-11.73255 q 0,-5.25942 1.05811,-7.93582 1.05811,-2.67639 4.51252,-4.76148 3.45442,-2.11622 8.40263,-2.11622 4.91709,0 8.40262,2.0851 3.48554,2.08509 4.63701,5.25942 1.15147,3.17432 1.15147,8.99392 z" />
        <path
           inkscape:connector-curvature="0"
           id="path4154"
           style="font-style:normal;font-variant:normal;font-weight:normal;font-stretch:condensed;font-family:Impact;-inkscape-font-specification:'Impact Condensed'"
           d="m 164.07271,906.39423 0,6.5665 -12.94626,0 0,-6.5665 12.94626,0 z m 0,9.08729 0,41.29735 -12.94626,0 0,-41.29735 12.94626,0 z" />
        <path
           inkscape:connector-curvature="0"
           id="path4156"
           style="font-style:normal;font-variant:normal;font-weight:normal;font-stretch:condensed;font-family:Impact;-inkscape-font-specification:'Impact Condensed'"
           d="m 179.78873,931.47763 -11.7948,0 0,-2.76976 q 0,-4.7926 1.08923,-7.37563 1.12035,-2.61415 4.45028,-4.60589 3.32993,-1.99173 8.65159,-1.99173 6.37977,0 9.61634,2.27182 3.23657,2.2407 3.8901,5.53951 0.65354,3.26769 0.65354,13.50644 l 0,20.72648 -12.23049,0 0,-3.67226 q -1.15147,2.20958 -2.9876,3.32993 -1.80501,1.08923 -4.32579,1.08923 -3.29881,0 -6.06857,-1.83613 -2.73863,-1.86725 -2.73863,-8.12254 l 0,-3.39217 q 0,-4.637 1.46268,-6.31753 1.46268,-1.68052 7.25115,-3.92122 6.19305,-2.42743 6.62874,-3.26769 0.43569,-0.84026 0.43569,-3.42329 0,-3.23657 -0.49793,-4.20132 -0.46681,-0.99586 -1.58716,-0.99586 -1.27596,0 -1.58717,0.84026 -0.3112,0.80914 -0.3112,4.26355 l 0,4.3258 z m 3.98346,5.66399 q -3.01872,2.20958 -3.51665,3.70338 -0.46681,1.4938 -0.46681,4.29468 0,3.20544 0.40457,4.13907 0.43569,0.93362 1.68052,0.93362 1.18259,0 1.52492,-0.71578 0.37345,-0.7469 0.37345,-3.85898 l 0,-8.49599 z" />
        <path
           inkscape:connector-curvature="0"
           id="path4158"
           style="font-style:normal;font-variant:normal;font-weight:normal;font-stretch:condensed;font-family:Impact;-inkscape-font-specification:'Impact Condensed'"
           d="m 213.61709,906.39423 0,50.38464 -12.94627,0 0,-50.38464 12.94627,0 z" />
        <path
           inkscape:connector-curvature="0"
           id="path4160"
           style="font-style:normal;font-variant:normal;font-weight:normal;font-stretch:condensed;font-family:Impact;-inkscape-font-specification:'Impact Condensed'"
           d="m 257.43522,921.64344 -12.16825,0 0,-3.7345 q 0,-2.61415 -0.46681,-3.32992 -0.46681,-0.71578 -1.55604,-0.71578 -1.18259,0 -1.80501,0.96474 -0.5913,0.96475 -0.5913,2.92536 0,2.52079 0.68466,3.79674 0.65354,1.27596 3.70338,3.08097 8.74496,5.19718 11.01678,8.5271 2.27182,3.32993 2.27182,10.73669 0,5.38391 -1.27596,7.93582 -1.24483,2.55191 -4.85485,4.29467 -3.61001,1.71165 -8.40262,1.71165 -5.25942,0 -8.99392,-1.99174 -3.70338,-1.99173 -4.85485,-5.07269 -1.15148,-3.08096 -1.15148,-8.74496 l 0,-3.29881 12.16825,0 0,6.13081 q 0,2.832 0.49794,3.64114 0.52905,0.80914 1.83612,0.80914 1.30708,0 1.9295,-1.02699 0.65353,-1.02699 0.65353,-3.04984 0,-4.45028 -1.21371,-5.8196 -1.24483,-1.36931 -6.1308,-4.57476 -4.88597,-3.23657 -6.47314,-4.69925 -1.58716,-1.46268 -2.64527,-4.04571 -1.02699,-2.58302 -1.02699,-6.59761 0,-5.78848 1.46268,-8.46487 1.4938,-2.67639 4.79261,-4.17019 3.29881,-1.52492 7.96694,-1.52492 5.10381,0 8.68271,1.6494 3.61002,1.64941 4.76149,4.17019 1.18259,2.48967 1.18259,8.49599 l 0,1.99173 z" />
        <path
           inkscape:connector-curvature="0"
           id="path4162"
           style="font-style:normal;font-variant:normal;font-weight:normal;font-stretch:condensed;font-family:Impact;-inkscape-font-specification:'Impact Condensed'"
           d="m 273.52469,931.47763 -11.7948,0 0,-2.76976 q 0,-4.7926 1.08923,-7.37563 1.12035,-2.61415 4.45028,-4.60589 3.32993,-1.99173 8.65159,-1.99173 6.37977,0 9.61634,2.27182 3.23657,2.2407 3.89011,5.53951 0.65353,3.26769 0.65353,13.50644 l 0,20.72648 -12.23049,0 0,-3.67226 q -1.15147,2.20958 -2.9876,3.32993 -1.805,1.08923 -4.32579,1.08923 -3.29881,0 -6.06857,-1.83613 -2.73863,-1.86725 -2.73863,-8.12254 l 0,-3.39217 q 0,-4.637 1.46268,-6.31753 1.46268,-1.68052 7.25116,-3.92122 6.19304,-2.42743 6.62873,-3.26769 0.4357,-0.84026 0.4357,-3.42329 0,-3.23657 -0.49794,-4.20132 -0.46681,-0.99586 -1.58716,-0.99586 -1.27595,0 -1.58716,0.84026 -0.31121,0.80914 -0.31121,4.26355 l 0,4.3258 z m 3.98347,5.66399 q -3.01873,2.20958 -3.51666,3.70338 -0.46681,1.4938 -0.46681,4.29468 0,3.20544 0.40457,4.13907 0.43569,0.93362 1.68052,0.93362 1.1826,0 1.52493,-0.71578 0.37345,-0.7469 0.37345,-3.85898 l 0,-8.49599 z" />
        <path
           inkscape:connector-curvature="0"
           id="path4164"
           style="font-style:normal;font-variant:normal;font-weight:normal;font-stretch:condensed;font-family:Impact;-inkscape-font-specification:'Impact Condensed'"
           d="m 310.434,906.39423 0,6.37978 q -3.89011,0 -4.60589,0.37345 -0.68466,0.34233 -0.68466,2.02285 l 0,1.30708 5.29055,0 0,6.53537 -2.9876,0 0,33.76611 -12.57282,0 0,-33.76611 -2.58303,0 0,-6.53537 2.58303,0 q 0,-4.07683 0.28009,-5.44615 0.28008,-1.36932 1.36931,-2.42743 1.12035,-1.08922 3.11209,-1.6494 1.99173,-0.56018 6.19304,-0.56018 l 4.60589,0 z" />
        <path
           inkscape:connector-curvature="0"
           id="path4166"
           style="font-style:normal;font-variant:normal;font-weight:normal;font-stretch:condensed;font-family:Impact;-inkscape-font-specification:'Impact Condensed'"
           d="m 341.30588,936.86153 -16.27619,0 0,8.93168 q 0,2.80088 0.40457,3.61002 0.40457,0.80914 1.55604,0.80914 1.43156,0 1.89837,-1.05811 0.49793,-1.08922 0.49793,-4.17019 l 0,-5.44614 11.91928,0 0,3.04984 q 0,3.82786 -0.49793,5.88184 -0.46681,2.05397 -2.2407,4.38803 -1.77389,2.33407 -4.51252,3.51666 -2.70751,1.15147 -6.81546,1.15147 -3.98347,0 -7.03331,-1.15147 -3.04984,-1.15147 -4.76149,-3.14321 -1.68053,-2.02285 -2.33406,-4.41915 -0.65354,-2.42743 -0.65354,-7.03331 l 0,-12.04377 q 0,-5.41502 1.46268,-8.52711 1.46268,-3.1432 4.79261,-4.79261 3.32993,-1.68052 7.65572,-1.68052 5.29055,0 8.71384,2.02285 3.45441,1.99174 4.82373,5.32167 1.40043,3.29881 1.40043,9.30513 l 0,5.47726 z m -12.60393,-6.7221 0,-3.01872 q 0,-3.20544 -0.34233,-4.13907 -0.34233,-0.93362 -1.40044,-0.93362 -1.30708,0 -1.61828,0.80914 -0.31121,0.77802 -0.31121,4.26355 l 0,3.01872 3.67226,0 z" />
        <path
           inkscape:connector-curvature="0"
           id="path4168"
           style="font-style:normal;font-variant:normal;font-weight:normal;font-stretch:condensed;font-family:Impact;-inkscape-font-specification:'Impact Condensed'"
           d="m 358.70242,909.97313 0,6.50426 3.39217,0 0,6.53537 -3.39217,0 0,22.0958 q 0,4.07683 0.40457,4.54364 0.43569,0.46681 3.51665,0.46681 l 0,6.65986 -5.07269,0 q -4.29468,0 -6.13081,-0.34233 -1.83613,-0.37345 -3.23656,-1.6494 -1.40044,-1.30708 -1.74277,-2.95648 -0.34233,-1.68053 -0.34233,-7.84245 l 0,-20.97545 -2.70751,0 0,-6.53537 2.70751,0 0,-6.50426 12.60394,0 z" />
        <path
           inkscape:connector-curvature="0"
           id="path4170"
           style="font-style:normal;font-variant:normal;font-weight:normal;font-stretch:condensed;font-family:Impact;-inkscape-font-specification:'Impact Condensed'"
           d="m 392.43742,915.48152 -3.61002,29.876 q -0.84026,7.09555 -1.43156,9.67858 -0.56017,2.58303 -1.89837,4.26356 -1.3382,1.68052 -3.7345,2.45854 -2.36518,0.80915 -7.59348,0.80915 l -7.62461,0 0,-6.59762 q 2.92536,0 3.76562,-0.28009 0.84026,-0.31121 0.84026,-1.3382 0,-0.49793 -0.77802,-4.32579 l -6.8777,-34.54413 11.42135,0 4.10795,27.85315 1.99173,-27.85315 11.42135,0 z" />
        <path
           inkscape:connector-curvature="0"
           id="path4172"
           style="font-style:normal;font-variant:normal;font-weight:normal;font-stretch:condensed;font-family:Impact;-inkscape-font-specification:'Impact Condensed'"
           d="m 435.57088,906.39423 0,50.38464 -11.48359,0 -6.81546,-22.90494 0,22.90494 -10.95454,0 0,-50.38464 10.95454,0 7.34452,22.68709 0,-22.68709 10.95453,0 z" />
        <path
           inkscape:connector-curvature="0"
           id="path4174"
           style="font-style:normal;font-variant:normal;font-weight:normal;font-stretch:condensed;font-family:Impact;-inkscape-font-specification:'Impact Condensed'"
           d="m 468.90131,936.86153 -16.27619,0 0,8.93168 q 0,2.80088 0.40457,3.61002 0.40457,0.80914 1.55604,0.80914 1.43156,0 1.89837,-1.05811 0.49793,-1.08922 0.49793,-4.17019 l 0,-5.44614 11.91928,0 0,3.04984 q 0,3.82786 -0.49793,5.88184 -0.46681,2.05397 -2.2407,4.38803 -1.77389,2.33407 -4.51252,3.51666 -2.70751,1.15147 -6.81547,1.15147 -3.98346,0 -7.0333,-1.15147 -3.04985,-1.15147 -4.76149,-3.14321 -1.68053,-2.02285 -2.33407,-4.41915 -0.65353,-2.42743 -0.65353,-7.03331 l 0,-12.04377 q 0,-5.41502 1.46268,-8.52711 1.46268,-3.1432 4.79261,-4.79261 3.32993,-1.68052 7.65572,-1.68052 5.29054,0 8.71384,2.02285 3.45441,1.99174 4.82373,5.32167 1.40043,3.29881 1.40043,9.30513 l 0,5.47726 z m -12.60394,-6.7221 0,-3.01872 q 0,-3.20544 -0.34233,-4.13907 -0.34232,-0.93362 -1.40043,-0.93362 -1.30708,0 -1.61829,0.80914 -0.3112,0.77802 -0.3112,4.26355 l 0,3.01872 3.67225,0 z" />
        <path
           inkscape:connector-curvature="0"
           id="path4176"
           style="font-style:normal;font-variant:normal;font-weight:normal;font-stretch:condensed;font-family:Impact;-inkscape-font-specification:'Impact Condensed'"
           d="m 486.29785,909.97313 0,6.50426 3.39217,0 0,6.53537 -3.39217,0 0,22.0958 q 0,4.07683 0.40457,4.54364 0.43569,0.46681 3.51665,0.46681 l 0,6.65986 -5.07269,0 q -4.29468,0 -6.13081,-0.34233 -1.83613,-0.37345 -3.23656,-1.6494 -1.40044,-1.30708 -1.74277,-2.95648 -0.34233,-1.68053 -0.34233,-7.84245 l 0,-20.97545 -2.70751,0 0,-6.53537 2.70751,0 0,-6.50426 12.60394,0 z" />
      </g>
      <circle
         r="6.2597337"
         cy="960.70776"
         cx="397.28333"
         id="path3344"
         style="fill:#fc4e4e;fill-opacity:1;fill-rule:evenodd;stroke:none;stroke-width:1px;stroke-linecap:butt;stroke-linejoin:miter;stroke-opacity:1" />
      <path
         inkscape:connector-curvature="0"
         d="m 43.220003,1029.402 c 11.575541,0.6784 23.162539,0.6419 34.744262,0.694 16.235067,0.061 32.470115,0 48.705215,0.018 15.96284,-0.084 31.92527,-0.072 47.88785,0.097 21.56825,0.2479 43.1371,0.206 64.70571,0.2148 23.16048,0.076 46.32106,0.075 69.48156,0.019 25.32107,0.032 50.64161,0.2708 75.96269,0.1824 19.08446,-0.1718 38.16858,-0.4265 57.25307,-0.5889 11.5247,0.032 23.04769,-0.1434 34.57124,-0.3603 1.02908,-0.029 2.05817,-0.056 3.08726,-0.083 0,0 -14.71572,17.0135 -14.71572,17.0135 l 0,0 c -0.98097,-0.029 -1.96195,-0.056 -2.94294,-0.083 -11.31574,-0.2199 -22.63089,-0.3931 -33.94782,-0.3605 -18.74489,-0.1617 -37.48942,-0.4174 -56.23429,-0.5889 -25.42631,-0.089 -50.8521,0.1514 -76.27839,0.1825 -23.17162,-0.056 -46.34334,-0.057 -69.51495,0.019 -21.69246,0.016 -43.3851,-0.032 -65.07718,0.2148 -16.01886,0.1676 -32.03753,0.1843 -48.05663,0.097 -16.244972,0.016 -32.489902,-0.043 -48.734832,0.018 -11.982173,0.054 -23.968601,0.038 -35.945198,0.6942 0,0 15.049093,-17.3989 15.049093,-17.3989 z"
         id="path4370"
         style="fill:#655fff;fill-opacity:1;stroke:#000000;stroke-width:1.3131932;stroke-miterlimit:4;stroke-dasharray:none;stroke-opacity:1" />
      <path
         inkscape:connector-curvature="0"
         d="m 127.77835,984.2202 c -0.16956,3.84373 -0.16522,7.6951 -0.15568,11.54234 -0.0159,3.39471 0.039,6.78926 0.10453,10.18316 0.037,1.4306 0.0481,2.8611 0.0502,4.292 -0.005,1.263 0.005,2.5261 -0.003,3.789 0.002,0.196 0.005,0.392 0.006,0.588 6e-4,0.2046 -0.006,0.4093 -0.002,0.6139 0.003,0.1195 0.16675,0.305 0.0578,0.3558 -9.27936,4.3315 -9.19268,7.5278 -9.01342,3.4411 0.0707,-2.4662 0.0537,-4.9336 0.0531,-7.4005 0.0128,-2.57 1.9e-4,-5.1398 -0.0112,-7.7097 0.0196,-1.7344 -0.0857,-3.4719 -0.0164,-5.20548 0.75924,-4.93567 7.15442,-6.45767 11.57553,-6.59646 1.98099,-0.0319 3.96234,-10e-4 5.94338,0.0159 1.60511,0.0159 3.21012,0 4.81517,-0.0175 1.03033,-0.0175 2.06039,0 3.09079,0 0.69809,-3.2e-4 1.39612,0 2.09423,-0.0159 0,0 -8.16923,5.93552 -8.16923,5.93552 l 0,0 c -0.68922,-0.002 -1.37837,-0.0159 -2.06761,-0.0159 -1.03476,-1.6e-4 -2.0693,0.0239 -3.10395,10e-4 -1.5734,-0.0159 -3.14659,-0.051 -4.72014,-0.0558 -1.98191,0 -3.96702,-0.0398 -5.94626,0.0829 -0.50184,0.0574 -1.0228,0.086 -1.5072,0.24984 -0.18872,0.0637 -0.70839,0.36313 -0.53839,0.25925 2.6987,-1.64741 5.4279,-3.24462 8.1268,-4.89186 0.11743,-0.0717 -0.27936,0.0685 -0.37902,0.16332 -0.10548,0.10038 -0.13385,0.25893 -0.20067,0.38831 -0.2846,1.69919 -0.0206,3.45765 -0.13831,5.17181 -0.0112,2.57375 -0.0247,5.14745 -0.0112,7.72125 -6.7e-4,2.4488 -0.0182,4.898 0.0531,7.3463 0.19165,4.1742 0.24777,0.6294 -9.01343,5.7441 -0.0143,0 0.0317,-0.019 0.0339,-0.035 0.0175,-0.1259 0.021,-0.2529 0.0239,-0.3797 0.005,-0.2038 -0.003,-0.4078 -0.002,-0.6117 5.9e-4,-0.1979 0.003,-0.3958 0.006,-0.5937 -0.008,-1.262 0.003,-2.5241 -0.003,-3.7862 0.002,-1.4479 0.0143,-2.8955 0.0502,-4.3431 0.0648,-3.4295 0.12014,-6.8596 0.10453,-10.2898 0.01,-3.79414 0.0167,-7.59294 -0.15568,-11.38361 0,0 8.9693,-4.57015 8.9693,-4.57015 z"
         id="path4384"
         style="fill:#fc4e4e;fill-opacity:1;stroke:#000000;stroke-width:1.59338689;stroke-miterlimit:4;stroke-dasharray:none;stroke-opacity:1" />
      <path
         inkscape:connector-curvature="0"
         d="m 159.48333,1005.878 c 3.34835,0.1115 6.69997,0.099 10.04983,0.096 1.99302,-0.07 3.61023,0.3419 5.48492,-0.5432 0.45641,-0.2154 1.72315,-1.0486 1.27442,-0.8176 -7.59365,3.9096 -9.07421,6.2877 -6.64092,2.9148 1.06835,-2.131 1.32696,-4.5508 1.23445,-6.9067 -0.34679,-1.35275 -1.32825,-1.81324 -2.61139,-1.9882 -2.02833,-0.18817 -4.07007,-0.15933 -6.10503,-0.15296 -2.19519,0.0255 -4.3905,0.0207 -6.5858,0.0255 -1.67816,0 -3.35646,0.0191 -5.03448,0.043 -1.90243,3.21766 0.0641,-0.28044 7.94357,-4.23921 0.23283,-0.11632 -0.23295,0.46973 -0.30207,0.72101 -0.34977,1.2712 -0.3341,2.65968 -0.39265,3.96387 -0.0763,2.55849 -0.0381,5.11859 0.0144,7.67729 0.0378,1.2476 0.0639,2.4944 0.0526,3.7425 0.0945,1.3748 -0.22371,2.8227 0.11472,4.168 0.28176,0.7068 0.71126,0.8032 1.4158,0.8826 0.86075,0.097 0.68819,0.075 1.59299,0.1275 1.84325,0.068 3.6878,0.024 5.53167,0.035 2.1192,-0.019 4.23854,-0.016 6.35782,-0.019 1.68685,-0.016 3.37363,-0.021 5.06052,-0.021 0.99927,0 0.49782,0 1.50436,0 0,0 -8.11767,5.8978 -8.11767,5.8978 l 0,0 c -1.00716,0 -0.5069,0 -1.50081,0 -1.66894,-8e-4 -3.33778,0 -5.00672,-0.016 -2.11886,0 -4.23763,0.016 -6.35649,0.022 -1.87211,0.027 -3.75,0.051 -5.6186,-0.08 -1.64346,-0.1729 -2.99188,-0.312 -3.69038,-2.0048 -0.0809,-0.2508 -0.2006,-0.4924 -0.24273,-0.7524 -0.0387,-0.239 0.003,-0.4842 0.003,-0.7264 0.003,-0.9798 -0.003,-1.9597 -0.0143,-2.9393 -0.0162,-1.2583 -0.003,-2.516 0.0174,-3.7743 0.0237,-2.5881 0.0288,-5.1763 0.0687,-7.7643 0.14515,-5.77887 -0.28931,-10.33309 9.71961,-10.82274 1.64218,0.0223 3.28472,0.0319 4.92702,0.0319 2.1969,0 4.39367,-0.0303 6.59058,-0.0271 2.09853,-6.4e-4 4.21604,-0.0542 6.29391,0.28458 1.75212,0.50383 2.71423,1.34163 3.2617,3.12861 0.12253,2.52393 -0.21425,5.10965 -1.06711,7.49015 -2.43533,4.4932 -0.48595,1.3868 -10.10782,7.268 -0.92414,0.565 -2.03275,0.8285 -3.09728,0.92 -1.28674,0.1099 -2.58785,-0.1227 -3.87446,0 -3.43733,0 -6.87616,-0.016 -10.31211,0.096 0,0 8.1655,-5.9325 8.1655,-5.9325 z"
         id="path4386"
         style="fill:#fc4e4e;fill-opacity:1;stroke:#000000;stroke-width:1.59338689;stroke-miterlimit:4;stroke-dasharray:none;stroke-opacity:1" />
      <path
         inkscape:connector-curvature="0"
         d="m 207.96973,998.04108 c -2.40163,-0.0829 -4.80513,-0.0542 -7.20765,-0.0446 -1.95031,0.0159 -3.90061,0.0159 -5.85094,0.0239 -1.44419,0.0845 -2.92278,-0.15456 -4.34908,0.11631 -3.50886,0.93755 -1.05298,0.32107 7.89007,-4.50323 0.12253,-0.0669 -0.22094,0.1748 -0.30424,0.28649 -0.36538,0.48965 -0.39317,1.14374 -0.46822,1.7215 -0.13034,1.61777 -0.0904,3.2427 -0.0655,4.86365 0.0202,1.1896 0.0343,2.3794 0.032,3.569 10e-4,1.2778 -0.0143,2.5553 -0.001,3.8329 0.005,1.0077 0.0128,2.0152 0.0191,3.0228 -0.0236,0.976 0.27478,1.5639 1.18647,1.9048 1.46934,0.2487 2.97254,0.221 4.45849,0.2422 2.38394,0.019 4.76803,-7e-4 7.15202,-0.016 2.0111,-0.016 4.02227,0 6.03332,-0.025 0.24969,0 0.50285,0.035 0.74909,0 0.19344,-0.032 0.36605,-0.1418 0.54907,-0.2116 -2.73253,1.4997 -5.40233,3.12 -8.19761,4.4994 -0.23791,0.1179 0.32962,-0.4235 0.43291,-0.6678 0.28658,-0.6779 0.36726,-1.5811 0.47153,-2.2874 0.26149,-2.7902 0.23993,-5.5977 0.20504,-8.3972 -0.0402,-2.142 -0.0652,-4.2835 -0.0346,-6.42577 0.0354,-2.29241 -0.0172,-4.58481 -0.0381,-6.87722 -0.0245,-1.47356 -0.01,-2.94729 -0.0167,-4.42085 0.0239,-1.5843 0.0241,-3.16861 -0.008,-4.75275 -0.003,-0.94648 -0.0188,-1.89295 -0.0233,-2.83942 -6.7e-4,-0.45619 0.008,-0.91237 0.0127,-1.36856 0,0 8.98873,-4.57987 8.98873,-4.57987 l 0,0 c 0.003,0.45188 0.0128,0.90361 0.0128,1.35565 -0.005,0.95444 -0.0209,1.90872 -0.0233,2.86316 -0.0319,1.58701 -0.0328,3.17418 -0.008,4.76136 -0.006,1.4793 0.008,2.9586 -0.0171,4.4379 -0.0204,2.30292 -0.0712,4.60616 -0.029,6.90924 0.0403,2.1439 0.0363,4.28765 0.0209,6.43173 -0.0183,2.8343 0.0213,5.6724 -0.15296,8.5028 -0.0295,0.3414 -0.26722,3.3217 -0.50903,3.4888 -5.89621,4.0746 -6.09988,5.557 -10.48592,5.4724 -1.99253,-0.019 -3.98523,0 -5.97786,-0.016 -2.39225,0 -4.78448,0 -7.17671,0.016 -1.61195,0 -3.31233,0.067 -4.82806,-0.5607 -1.07346,-0.6807 -1.64976,-1.5671 -1.75164,-2.8506 0.006,-1.014 0.0143,-2.0282 0.0194,-3.0423 0.0127,-1.2756 -0.002,-2.5515 -0.005,-3.8271 -0.008,-1.1922 -0.005,-2.3844 -0.006,-3.5767 0.001,-1.6511 -0.003,-3.3025 0.0314,-4.9532 0.24573,-4.9849 2.3411,-7.28097 9.94934,-7.98382 1.45664,-0.0303 2.91431,0.002 4.37119,0 1.92841,0.0159 3.85678,0.0159 5.78517,0.0239 2.44389,0.0159 4.88859,0.0351 7.33165,-0.0446 0,0 -8.1655,5.93266 -8.1655,5.93266 z"
         id="path4394"
         style="fill:#fc4e4e;fill-opacity:1;stroke:#000000;stroke-width:1.59338689;stroke-miterlimit:4;stroke-dasharray:none;stroke-opacity:1" />
      <path
         inkscape:connector-curvature="0"
         d="m 244.06606,972.36254 c -0.1493,3.15267 -0.13113,6.31268 -0.12349,9.46838 0.006,3.41192 -0.003,6.82384 0.0128,10.2356 0.0111,2.59435 0.0261,5.18854 0.0601,7.78258 4e-4,1.7424 0.0128,3.4849 0.0284,5.2273 0.0128,1.191 0.008,2.3824 0.0185,3.5735 0.0143,1.1102 -0.008,2.2203 -0.0128,3.3304 1.3e-4,0.2199 -0.002,0.4398 3.8e-4,0.6597 0.002,0.1703 0.006,0.3407 0.0143,0.5108 0.005,0.102 0.14245,0.2596 0.0499,0.3039 -9.2166,4.4189 -9.2049,7.6852 -9.03817,3.8217 0.0505,-1.6094 0.0331,-3.2203 0.0266,-4.8305 -0.008,-1.3518 7.5e-4,-2.7036 -0.0226,-4.0553 -0.0112,-1.2201 0.01,-2.4401 0.0218,-3.6602 -4.5e-4,-1.3446 -0.0112,-2.689 -0.0169,-4.0336 0.002,-1.12989 -0.002,-2.25944 -0.01,-3.38932 6.1e-4,-1.03235 0.005,-2.06439 -0.002,-3.09658 -0.005,-0.0414 0.017,-0.44376 -0.14165,-0.49284 -0.12094,-0.0367 -0.25393,0.0159 -0.37976,0 -0.87167,-0.0972 -1.72439,-0.20618 -2.60325,-0.2594 -1.85877,-0.0813 -3.71993,-0.0574 -5.57971,-0.0351 -1.64406,0.0287 -3.28907,-0.0335 -4.93251,0.0207 -0.0905,0.0159 -0.34619,0.0813 -0.27141,0.0287 2.90718,-2.01611 5.78283,-4.0856 8.79538,-5.94078 0.23506,-0.145 0.55201,0.0159 0.82804,0.0159 1.18347,0.0191 2.36661,0.0239 3.55024,0.0255 2.51749,0.0159 5.03497,0 7.5524,-0.0159 1.75819,-0.0335 3.51636,9.6e-4 5.2746,0 1.41201,0 2.82399,-0.0159 4.23599,-0.0239 1.04601,0 2.09196,6.4e-4 3.13797,0 0.81936,0 1.63873,0 2.45813,0 0.66924,-0.0319 1.30533,0.12747 1.87902,0.45921 0,0 -8.42488,5.60602 -8.42488,5.60602 l 0,0 c -0.53823,-0.12269 -1.07791,-0.16062 -1.63033,-0.12429 -0.81704,0 -1.63405,0 -2.45108,0 -1.04233,0 -2.08461,0 -3.12696,0 -1.3897,-0.0159 -2.77939,-0.0207 -4.16913,-0.0239 -1.75036,-0.0159 -3.50068,0.0255 -5.25099,0 -2.5047,-0.0223 -5.00948,-0.0255 -7.51426,-0.0159 -1.20784,0.002 -2.4152,0 -3.62289,0.0255 -0.28961,0 -1.08553,0.20603 -0.86879,0.0159 6.86453,-6.08626 4.39695,-6.37945 7.75256,-5.91513 1.63794,0.051 3.27726,-0.0239 4.91576,-0.0159 1.8586,0.0159 3.71848,0.0207 5.5742,0.13544 1.4692,0.12906 3.74015,0.10676 4.00622,1.97676 -0.006,1.03283 -0.002,2.06534 -0.002,3.09818 -0.006,1.13289 -0.0111,2.26563 -0.01,3.39853 -0.005,1.3504 -0.0164,2.70047 -0.0169,4.0509 0.0128,1.2125 0.033,2.4253 0.0218,3.638 -0.0231,1.3593 -0.0143,2.7188 -0.0226,4.0783 -0.006,1.601 -0.0244,3.203 0.0266,4.8034 0.17714,3.924 0.16796,0.421 -9.03817,5.3887 -0.105,0.057 0.0453,-0.2354 0.0499,-0.3547 0.006,-0.175 0.0112,-0.3499 0.0143,-0.5249 0.003,-0.22 2.7e-4,-0.4401 4e-4,-0.6601 -0.005,-1.1057 -0.0279,-2.2113 -0.0128,-3.3171 0.0112,-1.1975 0.006,-2.3951 0.0185,-3.5925 0.0164,-1.7521 0.0281,-3.504 0.0284,-5.2561 0.0339,-2.6144 0.0496,-5.22917 0.0601,-7.84376 0.0161,-3.41622 0.005,-6.83228 0.0128,-10.24835 0.008,-3.11379 0.0282,-6.23221 -0.12349,-9.34266 0,0 8.99303,-4.5821 8.99303,-4.5821 z"
         id="path4400"
         style="fill:#fc4e4e;fill-opacity:1;stroke:#000000;stroke-width:1.59338689;stroke-miterlimit:4;stroke-dasharray:none;stroke-opacity:1" />
      <path
         inkscape:connector-curvature="0"
         d="m 265.67078,993.64636 c 2.6299,0.0717 5.26119,0.0478 7.89182,0.0574 2.27853,0 4.55672,-0.035 6.83517,-0.043 1.13726,0.13544 2.39124,-0.2602 3.48929,0.10357 0.7683,0.52231 0.92547,1.3437 0.99137,2.21019 0.003,1.7438 -0.0534,3.48728 -0.0743,5.23108 -0.0298,2.336 -0.01,4.6722 0.0182,7.0081 9.7e-4,1.4809 0.0172,2.9618 0.0338,4.4427 -0.0237,0.2422 -0.0438,1.0208 -0.30474,1.1846 -3.0031,1.8844 -6.06154,3.6889 -9.20491,5.3286 -0.33331,0.1739 -0.75079,0.04 -1.12618,0.061 -1.86346,0.1004 -0.93697,0.057 -2.87099,0.1307 -2.36491,0.08 -4.73158,0.076 -7.09751,0.097 -0.89398,-0.1307 -1.9866,0.1826 -2.86566,0 -0.26472,-0.057 -0.50526,-0.1957 -0.75789,-0.2935 -1.56988,-0.4344 -2.71362,-1.6441 -4.04381,-2.5096 -1.41934,-0.6546 -1.7637,-1.9006 -1.95131,-3.3431 -0.1477,-2.1787 -0.13161,-4.3656 -0.16287,-6.5487 -0.0127,-1.0691 -0.0308,-2.1381 -0.033,-3.2073 0.0127,-0.7223 -0.0529,-1.4481 0.0894,-2.1597 0.0333,-0.129 0.0666,-0.2599 0.0999,-0.3899 0,0 9.22867,-4.17295 9.22867,-4.17295 l 0,0 c -0.0645,0.0653 -0.12906,0.12907 -0.19368,0.19424 -0.0591,0.1818 -0.1699,0.34799 -0.20309,0.53633 -0.0797,0.4522 0.0629,0.94759 -0.005,1.40314 -0.0127,1.08594 -0.0492,2.17134 -0.0704,3.25704 -0.0397,2.143 -0.068,4.2904 0.11218,6.4286 0.17511,1.3837 0.30555,1.8931 1.55927,2.5954 1.21305,0.8751 2.33068,1.935 3.85155,2.2277 1.14589,0.1403 2.30724,0.037 3.46006,0.1004 2.31344,0.045 4.62866,0.049 6.94076,-0.054 0.83734,-0.056 2.03434,-0.1067 2.86854,-0.2743 0.35894,-0.072 1.36002,-0.5123 1.05246,-0.3138 -2.60947,1.6846 -5.3499,3.158 -7.99077,4.7929 -0.134,0.083 0.32991,-0.032 0.45522,-0.1274 0.10803,-0.083 0.1246,-0.2414 0.18681,-0.3621 0.0164,-1.4926 0.0325,-2.9853 0.0349,-4.4783 0.0311,-2.3464 0.0559,-4.6932 0.039,-7.0399 -0.01,-1.6991 -0.0269,-3.3978 -0.0644,-5.0965 -0.008,-0.2919 0.12572,-1.06105 -0.3017,-1.04926 -1.09652,0.0335 -2.19524,-0.0414 -3.29214,-0.0191 -2.23922,0 -4.47817,-0.051 -6.71748,-0.043 -2.68374,0.0159 -5.36807,-0.0159 -8.05113,0.0574 0,0 8.14395,-5.91688 8.14395,-5.91688 z"
         id="path4410"
         style="fill:#fc4e4e;fill-opacity:1;stroke:#000000;stroke-width:1.59338689;stroke-miterlimit:4;stroke-dasharray:none;stroke-opacity:1" />
      <path
         inkscape:connector-curvature="0"
         d="m 300.23832,993.63855 c 1.97459,0.0414 3.95,0.0414 5.92499,0.043 2.16208,-0.0207 4.32417,0 6.48628,0 1.65448,-0.0159 3.30883,-0.0287 4.96334,-0.0239 1.3273,0 2.65472,-10e-4 3.982,-0.0159 1.69984,-0.0446 2.11184,-0.19471 2.94263,1.49189 0.60082,2.06933 0.52284,4.27569 0.56325,6.41306 0.017,2.0733 0.0111,4.1466 0.025,6.2198 0.008,1.1914 0.0229,2.3826 0.0303,3.5738 0.0837,0.8072 -0.15711,1.5519 -0.35698,2.3179 -3.38656,5.527 -7.85188,5.6597 -12.72879,5.7441 -2.69679,0 -5.39361,0.022 -8.09041,0.016 -2.3986,-0.1179 -4.72377,-0.9075 -6.95847,-1.7456 -0.6989,-0.5486 -1.68726,-0.634 -2.38575,-1.1711 -0.45251,-0.3479 -0.51408,-0.5673 -0.79969,-1.056 -0.68807,-2.2036 -0.5444,-4.5883 -0.55047,-6.8733 0.0218,-2.5082 0.0159,-5.0165 -0.0127,-7.5247 0,0 8.84477,-4.50286 8.84477,-4.50286 l 0,0 c -0.0444,2.5107 -0.0715,5.02186 -0.0301,7.53286 0.0327,2.1025 -0.0478,4.2686 0.47285,6.3192 0.57378,0.9516 1.86272,1.1277 2.75736,1.7 2.13832,0.8356 4.37534,1.4838 6.68942,1.4914 2.69991,0 5.40142,0.046 8.09987,-0.069 0.92466,-0.053 1.92016,-0.041 2.81494,-0.3238 0.16841,-0.053 0.62999,-0.3183 0.47787,-0.2286 -8.27399,4.877 -11.4433,5.2588 -7.86859,4.7687 0.0845,-0.045 0.19972,-0.056 0.2533,-0.1339 0.10182,-0.1497 0.41084,-1.4617 0.37372,-1.6759 0.01,-1.2055 0.029,-2.4109 0.0472,-3.6165 0.0292,-2.0776 0.0488,-4.1559 0.039,-6.2338 -0.0143,-1.9874 0.0273,-4.0265 -0.4582,-5.9653 -0.0644,-0.13227 -0.10325,-0.27998 -0.19334,-0.39582 -0.27691,-0.35644 -1.7091,-0.0621 -2.14524,-0.15137 -1.31794,-0.0159 -2.63599,0 -3.95394,-0.0159 -1.63295,0 -3.26573,-0.0159 -4.89863,-0.0239 -2.15947,0 -4.31889,0.0175 -6.47831,0 -2.01452,9.5e-4 -4.02941,0 -6.04357,0.043 0,0 8.1655,-5.93266 8.1655,-5.93266 z"
         id="path4412"
         style="fill:#fc4e4e;fill-opacity:1;stroke:#000000;stroke-width:1.59338689;stroke-miterlimit:4;stroke-dasharray:none;stroke-opacity:1" />
      <path
         inkscape:connector-curvature="0"
         d="m 346.06242,976.4424 c -0.0604,3.1608 0.134,6.32352 0.20518,9.48464 0.0741,3.62989 0.1536,7.25979 0.21584,10.89 0.0351,2.2301 0.0341,4.46086 0.0403,6.69126 -0.006,1.7386 0.0112,3.4769 0.0285,5.2153 0.006,1.2913 -0.003,2.5829 0.0112,3.874 0.8197,3.3437 0.37972,1.3208 -8.97917,4.2249 -0.41031,0.1275 0.0527,-0.8577 0.07,-1.287 0.0249,-0.6185 0.0427,-1.2373 0.0561,-1.8561 0.0397,-1.8378 0.0309,-2.4817 0.0327,-4.3214 0.008,-2.8376 -0.0868,-5.6739 -0.12014,-8.511 -0.0143,-1.60387 0.16492,-2.03265 -1.51086,-2.23103 -1.46919,-0.16619 -2.95167,-0.12587 -4.42748,-0.1195 -1.24973,0.0526 -2.50877,-0.0335 -3.75617,0.0717 8.64917,-6.43616 5.73598,-5.95432 11.70231,-5.92564 1.65503,0.0159 3.31023,-8e-4 4.96531,0 1.14432,-0.0159 2.28857,-0.0159 3.43292,-0.0159 1.06789,0 2.13586,0 3.20373,0 0.84172,0 1.68349,0 2.5252,0 0.84073,0 1.68147,0 2.5222,-10e-4 0.6542,0 1.30843,0 1.96265,0 0,0 -8.16035,5.92883 -8.16035,5.92883 l 0,0 c -0.66068,8e-4 -1.32138,0.001 -1.98205,0 -0.83949,0 -1.679,0 -2.5185,-10e-4 -0.84166,0 -1.68339,0 -2.52508,0 -1.06156,-0.0159 -2.12322,-0.0159 -3.18481,0 -1.13389,-3.2e-4 -2.26766,-0.002 -3.40151,-0.0159 -1.64784,0 -3.29581,-0.0175 -4.94361,0 -5.67786,0.0271 -5.24247,0.9801 4.60418,-5.93728 1.21507,0.0908 2.44059,-0.0287 3.65727,0.0159 1.53179,0 3.07862,-0.0303 4.5829,0.30609 1.93609,0.6501 2.23444,1.40967 2.15928,3.39965 -0.0335,2.87781 -0.12699,5.75498 -0.12014,8.63338 0.002,2.0297 0.003,4.0587 0.0888,6.0871 0.0169,0.4055 0.40113,0.9809 0.07,1.2156 -2.82125,1.9995 -5.98683,3.4637 -9.01865,5.1267 -0.0599,0.034 0.0263,-0.1338 0.0395,-0.2012 0.0127,-1.295 0.005,-2.5903 0.0111,-3.8852 0.0175,-1.7489 0.0365,-3.4978 0.0325,-5.2469 0.01,-2.2412 0.0128,-4.4825 0.0343,-6.7237 0.0312,-3.64678 0.05,-7.29452 -0.0631,-10.94035 -0.11456,-3.12065 -0.29278,-6.23668 -0.53396,-9.34936 0,0 8.99303,-4.5821 8.99303,-4.5821 z"
         id="path4416"
         style="fill:#fc4e4e;fill-opacity:1;stroke:#000000;stroke-width:1.59338689;stroke-miterlimit:4;stroke-dasharray:none;stroke-opacity:1" />
      <path
         inkscape:connector-curvature="0"
         d="m 372.06555,971.4066 c -0.1195,2.67886 -0.0843,5.36213 -0.0879,8.04316 0.0172,2.50082 0.0269,5.00164 0.0253,7.50262 -0.0239,2.59196 0.003,5.18377 -0.0159,7.77573 -0.0253,2.64598 0.006,5.29199 0.0198,7.93789 0.0293,1.6712 0.0301,3.3427 0.0448,5.014 -0.01,1.3931 -0.002,2.786 0.006,4.1791 0.0253,4.3503 1.25161,1.3383 -8.99363,5.4201 -0.20964,0.083 0.0221,-0.4508 0.0311,-0.6763 0.0143,-0.355 0.025,-0.7102 0.0376,-1.0653 0.0598,-2.5972 0.0389,-5.1959 0.002,-7.7933 -0.0373,-1.4515 -0.0249,-2.9036 -0.048,-4.3552 0.12715,-4.40872 6.12327,-6.6299 10.28372,-6.71515 1.00839,-0.0239 2.01676,-3.1e-4 3.02511,0 1.38873,0.0271 2.77762,0.0351 4.16662,0.0335 1.66458,-0.0271 3.32835,0.0223 4.99296,0.0271 0.63426,1.6e-4 1.62111,-0.0574 2.24712,0.16157 1.64167,0.57362 2.15802,2.32635 2.57195,3.81538 0.46004,2.3178 0.54456,4.69 0.56841,7.0465 0.029,1.4629 -0.0128,2.9256 -0.003,4.3885 -7.8e-4,0.7688 0.0112,1.5374 0.01,2.3062 0,0 -9.0102,4.5892 -9.0102,4.5892 l 0,0 c 10e-4,-0.7778 0.0177,-1.5553 0.0287,-2.3329 0.0336,-1.4714 0.0311,-2.9432 0.0765,-4.4143 0.0128,-2.2843 0.041,-4.5864 -0.39522,-6.8392 -0.23314,-0.8647 -0.42883,-1.9641 -1.24759,-2.5135 -0.82716,-0.5553 -1.97884,-0.2994 -2.89246,-0.3616 -1.68846,0 -3.37621,0.056 -5.0646,0.022 -1.40723,0 -2.81447,0 -4.22163,0 -0.97822,-0.016 -1.96539,-0.033 -2.93486,0.1163 -3.15737,0.9001 -8.60336,5.2906 7.47313,-4.57526 0.10979,-0.0669 -0.26723,-0.0207 -0.38522,0.0319 -0.24962,0.10995 -0.26106,0.42846 -0.3131,0.63608 -0.0231,1.46788 -0.0111,2.93628 -0.048,4.40398 -0.036,2.5967 -0.0582,5.1946 0.002,7.791 0.0127,0.3424 0.0234,0.6849 0.0376,1.0273 0.01,0.2149 0.21385,0.5311 0.0311,0.6445 -10.71506,6.6503 -8.99513,8.1156 -8.99362,3.7449 0.008,-1.3951 0.0143,-2.7903 0.006,-4.1855 0.0143,-1.6866 0.0159,-3.3732 0.0448,-5.0596 0.0143,-2.6527 0.0449,-5.3053 0.0198,-7.95803 -0.0185,-2.58655 0.008,-5.17309 -0.0159,-7.75948 -0.002,-2.50958 0.008,-5.01901 0.0253,-7.52859 -0.003,-2.65092 0.0328,-5.30455 -0.0879,-7.95339 0,0 8.98117,-4.57613 8.98117,-4.57613 z"
         id="path4418"
         style="fill:#fc4e4e;fill-opacity:1;stroke:#000000;stroke-width:1.59338689;stroke-miterlimit:4;stroke-dasharray:none;stroke-opacity:1" />
    </g>
  </g>
</svg>
